<?xml version="1.0" encoding="UTF-8"?>
<!DOCTYPE svg PUBLIC "-//W3C//DTD SVG 1.1//EN" "http://www.w3.org/Graphics/SVG/1.1/DTD/svg11.dtd">
<!-- Creator: CorelDRAW -->
<svg xmlns="http://www.w3.org/2000/svg" xml:space="preserve" width="1024px" height="1024px" version="1.1" style="shape-rendering:geometricPrecision; text-rendering:geometricPrecision; image-rendering:optimizeQuality; fill-rule:evenodd; clip-rule:evenodd"
viewBox="0 0 1024 1024"
 xmlns:xlink="http://www.w3.org/1999/xlink"
 xmlns:xodm="http://www.corel.com/coreldraw/odm/2003">
 <defs>
  <style type="text/css">
   <![CDATA[
    .str2 {stroke:#2B2A29;stroke-width:9;stroke-miterlimit:22.9256}
    .str1 {stroke:#2B2A29;stroke-width:9;stroke-miterlimit:22.9256}
    .str0 {stroke:#2B2A29;stroke-width:9;stroke-miterlimit:22.9256}
    .fil1 {fill:#FEFEFE}
    .fil2 {fill:#2B2A29}
    .fil4 {fill:#2B2A29}
    .fil3 {fill:#DE482A}
    .fil0 {fill:#FC6F53}
    .fil5 {fill:#FC6F53}
   ]]>
  </style>
 </defs>
 <g id="Layer_x0020_1">
  <metadata id="CorelCorpID_0Corel-Layer"/>
  <g id="_2029600350496">
   <path class="fil0 str0" d="M509.93 717.5c-48.2,-64.82 -93.01,-102.52 -162.02,-148.24 -52.97,-35.16 -132.44,-81.37 -192.48,-100.97 35.58,-4.81 70.26,-6.59 105.21,-5.53 -39.56,-13.31 -74.87,-26.17 -111.92,-52.43 69.6,-12.71 138.02,-38.39 112.36,-112.31 -18.02,-45.12 -27.03,-79.52 -29.79,-117.04 -2.88,-39.15 -2.75,-78.33 -5.8,-117.85 -1,-15.68 -3.99,-31.2 -11.27,-54.34 23.79,9.83 177.18,161.1 185.48,182.74 71.98,-18.75 148.48,-18.75 220.46,0 8.31,-21.64 161.69,-172.91 185.48,-182.74 -7.27,23.14 -10.26,38.66 -11.27,54.34 -3.05,39.52 -2.91,78.7 -5.79,117.85 -2.76,37.52 -11.78,71.92 -29.8,117.04 -25.66,73.92 42.76,99.6 112.37,112.31 -37.06,26.26 -72.37,39.12 -111.93,52.43 34.95,-1.06 69.63,0.72 105.22,5.53 -60.05,19.6 -139.51,65.81 -192.49,100.97 -69,45.72 -113.81,83.42 -162.02,148.24z"/>
   <path class="fil1 str1" d="M776.21 107.19c-13.82,337 -123.26,148.64 -90.72,104.6 20.32,-27.56 58.39,-56.42 90.28,-103.94l0.44 -0.66z"/>
   <path class="fil1 str1" d="M243.66 107.19c13.82,337 123.25,148.64 90.71,104.6 -20.31,-27.56 -58.38,-56.42 -90.27,-103.94l-0.44 -0.66z"/>
   <g>
    <path class="fil2" d="M592.39 495.82c-25.08,-22.2 78.68,-67.3 92.41,-70.19 -2.26,15.05 -61.22,97.8 -92.41,70.19z"/>
    <path class="fil2" d="M427.49 495.82c25.08,-22.2 -78.69,-67.3 -92.41,-70.19 2.26,15.05 61.22,97.8 92.41,70.19z"/>
   </g>
   <path class="fil3 str0" d="M517.27 682.47c34.3,-163.65 68.6,-327.29 102.89,-490.94 -71.98,-18.75 -148.48,-18.75 -220.46,0l102.89 490.94 14.68 0z"/>
   <path class="fil4 str0" d="M580.65 638.47c-24.86,22.65 -47.39,47.66 -70.72,79.03 -23.32,-31.37 -45.86,-56.38 -70.72,-79.03 47.15,-10.47 94.3,-10.46 141.44,0z"/>
  </g>
  <path class="fil1 str2" d="M402.38 721.57l-57.91 -17.67 29.24 62.25 -48.85 -32.25 12.31 59.01 -46.08 -42.36 16.01 61.56 -37.01 -24.98 6.21 42.08c-31.77,-53.77 -61.33,-125.74 -109.94,-159.49 -48.46,-33.6 -76.42,-34.11 -133.19,-34.01 4.47,-11.72 26.11,-24.67 41.47,-30.58 55.6,-21.47 130,-20.65 185.9,-4.06 65.17,22.16 95.88,78.62 141.84,120.5z"/>
  <path class="fil5 str2" d="M276.3 829.21c10.74,18.19 21.74,34.3 33.82,46.15 77.59,92.95 175.85,131.2 311.64,142.94 75.64,10.17 169.72,7.5 233.18,-22.87 104.92,-50.15 153.27,-146.29 122.7,-259.64 -30.47,-112.99 -162.01,-168 -272.02,-88.15 -48.61,35.25 -92.55,121.55 -164.69,123.66 -54.41,1.97 -98.22,-12.94 -138.55,-49.73l-57.91 -17.67 29.24 62.25 -48.85 -32.25 12.31 59.01 -46.08 -42.36 16.01 61.56 -37.01 -24.98 6.21 42.08z"/>
 </g>
</svg>
